<svg width="119" height="120" viewBox="0 0 119 120" fill="none" xmlns="http://www.w3.org/2000/svg">
<rect x="3.5" y="0.5" width="112" height="112" rx="56" stroke="#6C7188"/>
<g filter="url(#filter0_d_12064_8)">
<rect x="13" y="10" width="93" height="93" rx="46.5" fill="#89C249"/>
</g>
<path d="M61 43.3047C60.461 43.3047 60.0234 43.7422 60.0234 44.2812C60.0234 44.8203 60.461 45.2578 61 45.2578C61.539 45.2578 61.9766 44.8203 61.9766 44.2812C61.9766 43.7422 61.539 43.3047 61 43.3047Z" fill="white"/>
<path d="M44.7891 60.8828C45.3281 60.8828 45.7656 60.4453 45.7656 59.9062C45.7656 59.3672 45.3281 58.9297 44.7891 58.9297C44.25 58.9297 43.8125 59.3672 43.8125 59.9062C43.8125 60.4453 44.25 60.8828 44.7891 60.8828Z" fill="white"/>
<path d="M68.8125 33.5391C60.0208 33.5391 52.8049 39.6006 52.2468 47.2357C43.8739 47.6557 36 53.6933 36 61.8594C36 65.272 37.3504 68.5786 39.8086 71.1985C40.295 73.2035 39.7045 75.3287 38.2392 76.7939C37.96 77.0732 37.8764 77.4931 38.0275 77.8582C38.1786 78.2229 38.5345 78.4609 38.9297 78.4609C41.7148 78.4609 44.3988 77.3688 46.3931 75.4443C48.336 76.1065 50.8708 76.5078 53.1875 76.5078C61.9781 76.5078 69.1932 70.4478 69.7528 62.8142C71.7975 62.7234 73.9242 62.3457 75.6069 61.7724C77.6012 63.6969 80.2852 64.7891 83.0703 64.7891C83.4655 64.7891 83.8214 64.551 83.9725 64.1863C84.1236 63.8213 84.04 63.4013 83.7608 63.122C82.2955 61.6568 81.705 59.5316 82.1914 57.5266C84.6496 54.9067 86 51.6001 86 48.1875C86 39.7025 77.5195 33.5391 68.8125 33.5391ZM53.1875 74.5547C50.8827 74.5547 48.2562 74.1023 46.4969 73.4023C46.12 73.252 45.6893 73.3508 45.4151 73.6502C44.2359 74.9392 42.7028 75.838 41.0323 76.2511C41.9528 74.4875 42.1878 72.4085 41.6278 70.4386C41.5836 70.2834 41.5016 70.1415 41.389 70.0259C39.1734 67.7439 37.9531 64.8436 37.9531 61.8594C37.9531 54.9777 44.9294 49.1641 53.1875 49.1641C60.9855 49.1641 67.8359 54.5867 67.8359 61.8594C67.8359 68.8597 61.2647 74.5547 53.1875 74.5547ZM80.611 56.354C80.4984 56.47 80.4164 56.6119 80.3722 56.7668C79.8122 58.7367 80.0472 60.8157 80.9677 62.5792C79.2972 62.1665 77.7641 61.2673 76.5849 59.9783C76.3107 59.6793 75.88 59.5801 75.5031 59.7304C73.9784 60.3369 71.8032 60.7569 69.7498 60.8584C69.4644 57.1654 67.6223 53.6944 64.4729 51.1172H77.2109C77.7503 51.1172 78.1875 50.68 78.1875 50.1406C78.1875 49.6012 77.7503 49.1641 77.2109 49.1641H61.4726C59.2559 48.0357 56.7668 47.3776 54.2049 47.2395C54.766 40.6806 61.1034 35.4922 68.8125 35.4922C77.0706 35.4922 84.0469 41.3058 84.0469 48.1875C84.0469 51.1717 82.8266 54.0721 80.611 56.354Z" fill="white"/>
<path d="M61 58.9297H48.6953C48.1559 58.9297 47.7188 59.3669 47.7188 59.9062C47.7188 60.4456 48.1559 60.8828 48.6953 60.8828H61C61.5394 60.8828 61.9766 60.4456 61.9766 59.9062C61.9766 59.3669 61.5394 58.9297 61 58.9297Z" fill="white"/>
<path d="M61 64.7891H44.7891C44.2497 64.7891 43.8125 65.2262 43.8125 65.7656C43.8125 66.305 44.2497 66.7422 44.7891 66.7422H61C61.5394 66.7422 61.9766 66.305 61.9766 65.7656C61.9766 65.2262 61.5394 64.7891 61 64.7891Z" fill="white"/>
<path d="M77.2109 43.3047H64.9062C64.3669 43.3047 63.9297 43.7419 63.9297 44.2812C63.9297 44.8206 64.3669 45.2578 64.9062 45.2578H77.2109C77.7503 45.2578 78.1875 44.8206 78.1875 44.2812C78.1875 43.7419 77.7503 43.3047 77.2109 43.3047Z" fill="white"/>
<defs>
<filter id="filter0_d_12064_8" x="0" y="1" width="119" height="119" filterUnits="userSpaceOnUse" color-interpolation-filters="sRGB">
<feFlood flood-opacity="0" result="BackgroundImageFix"/>
<feColorMatrix in="SourceAlpha" type="matrix" values="0 0 0 0 0 0 0 0 0 0 0 0 0 0 0 0 0 0 127 0" result="hardAlpha"/>
<feOffset dy="4"/>
<feGaussianBlur stdDeviation="6.5"/>
<feColorMatrix type="matrix" values="0 0 0 0 0.117326 0 0 0 0 0.138241 0 0 0 0 0.258333 0 0 0 0.11 0"/>
<feBlend mode="multiply" in2="BackgroundImageFix" result="effect1_dropShadow_12064_8"/>
<feBlend mode="normal" in="SourceGraphic" in2="effect1_dropShadow_12064_8" result="shape"/>
</filter>
</defs>
</svg>
