<svg width="119" height="120" viewBox="0 0 119 120" fill="none" xmlns="http://www.w3.org/2000/svg">
<rect x="3.5" y="0.5" width="112" height="112" rx="56" stroke="#6C7188"/>
<g filter="url(#filter0_d_12064_9)">
<rect x="13" y="10" width="93" height="93" rx="46.5" fill="#89C249"/>
</g>
<path d="M84 57.9061C84 56.7291 83.5319 55.6324 82.7251 54.8236C83.6397 53.8229 84.1058 52.4814 83.9784 51.0852C83.7493 48.5961 81.507 46.6456 78.8711 46.6456H66.7745C67.3737 44.8263 68.3333 41.4913 68.3333 38.8123C68.3333 34.5647 64.7241 30.979 62.4583 30.979C60.4256 30.979 58.9705 32.1246 58.9098 32.1716C58.6767 32.3577 58.5416 32.6397 58.5416 32.9373V39.578L52.8997 51.7961L52.6666 51.9155V51.5414C52.6666 51.0009 52.2279 50.5622 51.6874 50.5622H41.8958C39.1953 50.5623 37 52.7576 37 55.4581V71.1248C37 73.8254 39.1953 76.0206 41.8958 76.0206H47.7708C49.8877 76.0206 51.6972 74.6694 52.3787 72.7835C54.0081 73.6217 56.2014 74.0623 57.5625 74.0623H75.5381C77.6707 74.0623 79.537 72.6249 79.9756 70.6431C80.2008 69.6208 80.0696 68.5927 79.6231 67.6997C81.0684 66.9731 82.0417 65.4789 82.0417 63.7811C82.0417 63.0878 81.8831 62.4239 81.5834 61.8247C83.0287 61.0962 84 59.6039 84 57.9061ZM79.8699 60.3226C79.4919 60.3677 79.1727 60.6242 79.0513 60.9865C78.9319 61.3488 79.0318 61.7463 79.3098 62.0087C79.8073 62.4768 80.0834 63.1074 80.0834 63.7811C80.0834 65.0167 79.1493 66.0547 77.9136 66.1976C77.5357 66.2427 77.2164 66.4992 77.095 66.8615C76.9756 67.2238 77.0755 67.6213 77.3535 67.8837C77.9979 68.4908 78.2564 69.3427 78.0625 70.2201C77.8216 71.3128 76.7602 72.104 75.5382 72.104H57.5625C55.9723 72.104 53.3051 71.3579 52.3808 70.4316C52.1007 70.1535 51.6777 70.0713 51.3134 70.2201C50.9473 70.3709 50.7083 70.7293 50.7083 71.1248C50.7083 72.7444 49.3904 74.0623 47.7708 74.0623H41.8958C40.2762 74.0623 38.9583 72.7444 38.9583 71.1248V55.4581C38.9583 53.8385 40.2762 52.5206 41.8958 52.5206H50.7083V53.4998C50.7083 53.8386 50.8846 54.1539 51.1744 54.3341C51.4603 54.5064 51.8206 54.524 52.1261 54.3752L54.0844 53.396C54.2822 53.298 54.4409 53.1335 54.5349 52.9319L60.4099 40.2027C60.4686 40.0734 60.4999 39.9324 60.4999 39.7914V33.468C60.9073 33.2428 61.6143 32.9373 62.4583 32.9373C63.5315 32.9373 66.375 35.6046 66.375 38.8123C66.375 42.259 64.4989 47.2272 64.4813 47.2763C64.3678 47.5759 64.4069 47.9147 64.589 48.181C64.7731 48.4454 65.0747 48.604 65.3958 48.604H78.8711C80.5044 48.604 81.8909 49.7731 82.0279 51.2654C82.1317 52.3816 81.5951 53.4431 80.6336 54.0365C80.334 54.2205 80.1558 54.5535 80.1695 54.9079C80.1832 55.2623 80.3869 55.5796 80.7002 55.7421C81.5286 56.1632 82.0416 56.9935 82.0416 57.9061C82.0417 59.1417 81.1076 60.1797 79.8699 60.3226Z" fill="white"/>
<path d="M51.6901 52.521C51.1496 52.521 50.7109 52.9597 50.7109 53.5002V71.1252C50.7109 71.6657 51.1496 72.1044 51.6901 72.1044C52.2306 72.1044 52.6693 71.6657 52.6693 71.1252V53.5002C52.6693 52.9597 52.2306 52.521 51.6901 52.521Z" fill="white"/>
<defs>
<filter id="filter0_d_12064_9" x="0" y="1" width="119" height="119" filterUnits="userSpaceOnUse" color-interpolation-filters="sRGB">
<feFlood flood-opacity="0" result="BackgroundImageFix"/>
<feColorMatrix in="SourceAlpha" type="matrix" values="0 0 0 0 0 0 0 0 0 0 0 0 0 0 0 0 0 0 127 0" result="hardAlpha"/>
<feOffset dy="4"/>
<feGaussianBlur stdDeviation="6.5"/>
<feColorMatrix type="matrix" values="0 0 0 0 0.117326 0 0 0 0 0.138241 0 0 0 0 0.258333 0 0 0 0.11 0"/>
<feBlend mode="multiply" in2="BackgroundImageFix" result="effect1_dropShadow_12064_9"/>
<feBlend mode="normal" in="SourceGraphic" in2="effect1_dropShadow_12064_9" result="shape"/>
</filter>
</defs>
</svg>
