<svg width="119" height="120" viewBox="0 0 119 120" fill="none" xmlns="http://www.w3.org/2000/svg">
<rect x="3.5" y="0.5" width="112" height="112" rx="56" stroke="#6C7188"/>
<g filter="url(#filter0_d_12064_4)">
<rect x="13" y="10" width="93" height="93" rx="46.5" fill="#89C249"/>
</g>
<g clip-path="url(#clip0_12064_4)">
<path d="M47.7993 72.2541L58.5287 79.5696C58.8227 79.7689 59.2084 79.7689 59.502 79.5696L70.2348 72.2545C73.2484 70.1995 75.7068 65.5632 75.7068 61.9187V46.569C75.7043 46.2397 75.515 45.9402 75.2189 45.7959L59.3994 38.0275C59.1596 37.9101 58.8791 37.9101 58.6394 38.0275L42.8181 45.7724C42.5208 45.9162 42.3311 46.2157 42.3281 46.5458V61.9187C42.3281 65.5632 44.7861 70.1995 47.7993 72.2541ZM44.0509 47.083L59.0158 39.7603L73.9841 47.1057V61.9187C73.9841 64.9546 71.7755 69.119 69.2645 70.8308L59.0208 77.8153L48.7717 70.8308C46.2611 69.119 44.0509 64.9546 44.0509 61.9187V47.083Z" fill="white"/>
<path d="M45.797 75.1759L58.5235 83.8503C58.8183 84.0501 59.2049 84.0501 59.4997 83.8503L72.2337 75.1763C76.1642 72.4967 79.2586 66.673 79.2586 61.9186V44.3658C79.2527 44.0347 79.0605 43.7357 78.7623 43.5923L59.4038 34.088C59.1632 33.9707 58.8818 33.9707 58.6413 34.088L39.2727 43.5662C38.9732 43.7088 38.7802 44.0083 38.7734 44.3397V61.9186C38.7734 66.673 41.8669 72.4967 45.797 75.1759ZM40.4962 44.8768L59.0164 35.8209L77.5362 44.902V61.9186C77.5362 66.1624 74.7733 71.3606 71.2643 73.753L59.0232 82.096L46.7715 73.7526C43.2633 71.361 40.4962 66.1624 40.4962 61.9186V44.8768Z" fill="white"/>
<path d="M55.9843 66.9352C56.1463 67.0963 56.3663 67.1854 56.5946 67.1829H56.5967C56.8239 67.1858 57.0434 67.0975 57.2058 66.9385L69.4443 54.7033C69.6063 54.5422 69.6971 54.3235 69.6971 54.0951C69.6971 53.8667 69.6063 53.648 69.4443 53.4869L67.0082 51.0517C66.6718 50.7152 66.1262 50.7152 65.7898 51.0517L56.6115 60.2304L52.2658 55.8419C51.931 55.5037 51.3855 55.5012 51.0474 55.836L48.5991 58.2603C48.4367 58.4214 48.345 58.6401 48.3438 58.8685C48.3429 59.0956 48.4325 59.3139 48.5932 59.475L55.9843 66.9352ZM51.6476 57.6669L55.9965 62.0701C56.1564 62.2362 56.3759 62.3326 56.6064 62.3372H56.6085C56.8386 62.333 57.0573 62.2379 57.2175 62.073L66.3992 52.8859L67.6173 54.101L56.5997 65.1173L50.4236 58.8803L51.6476 57.6669Z" fill="white"/>
</g>
<defs>
<filter id="filter0_d_12064_4" x="0" y="1" width="119" height="119" filterUnits="userSpaceOnUse" color-interpolation-filters="sRGB">
<feFlood flood-opacity="0" result="BackgroundImageFix"/>
<feColorMatrix in="SourceAlpha" type="matrix" values="0 0 0 0 0 0 0 0 0 0 0 0 0 0 0 0 0 0 127 0" result="hardAlpha"/>
<feOffset dy="4"/>
<feGaussianBlur stdDeviation="6.5"/>
<feColorMatrix type="matrix" values="0 0 0 0 0.117326 0 0 0 0 0.138241 0 0 0 0 0.258333 0 0 0 0.11 0"/>
<feBlend mode="multiply" in2="BackgroundImageFix" result="effect1_dropShadow_12064_4"/>
<feBlend mode="normal" in="SourceGraphic" in2="effect1_dropShadow_12064_4" result="shape"/>
</filter>
<clipPath id="clip0_12064_4">
<rect width="50" height="50" fill="white" transform="translate(34 34)"/>
</clipPath>
</defs>
</svg>
