<svg width="119" height="120" viewBox="0 0 119 120" fill="none" xmlns="http://www.w3.org/2000/svg">
<rect x="3.5" y="0.5" width="112" height="112" rx="56" stroke="#6C7188"/>
<g filter="url(#filter0_d_12064_10)">
<rect x="13" y="10" width="93" height="93" rx="46.5" fill="#89C249"/>
</g>
<g clip-path="url(#clip0_12064_10)">
<path d="M86.1114 40.456C85.4636 39.6902 84.5564 39.2224 83.5567 39.1389L48.3461 36.1989C47.3463 36.1154 46.3743 36.4262 45.6084 37.074C44.8456 37.7192 44.3785 38.6218 44.2924 39.6166L43.584 46.2627H40.7554C38.6847 46.2627 37 47.9474 37 50.0181V72.0592C37 74.1299 38.6847 75.8146 40.7554 75.8146H76.0885C78.1593 75.8146 79.844 74.1299 79.844 72.0592V68.4837L81.0978 68.5884C81.2035 68.5972 81.3087 68.6016 81.413 68.6016C83.3435 68.6016 84.9892 67.1163 85.1527 65.1585L86.9867 43.1939C87.0701 42.1942 86.7593 41.2219 86.1114 40.456ZM40.7554 48.2158H76.0885C77.0823 48.2158 77.8909 49.0243 77.8909 50.0181V52.0265H38.9531V50.0181C38.9531 49.0243 39.7616 48.2158 40.7554 48.2158ZM38.9531 53.9796H77.8909V58.0312H38.9531V53.9796ZM76.0885 73.8614H40.7554C39.7616 73.8614 38.9531 73.0529 38.9531 72.0592V59.9843H77.8909V72.0592C77.8909 73.0529 77.0823 73.8614 76.0885 73.8614ZM85.0403 43.0313L83.2063 64.9959C83.1236 65.9863 82.2504 66.725 81.2603 66.642L79.844 66.5238V50.0181C79.844 47.9474 78.1593 46.2627 76.0885 46.2627H45.5482L46.2356 39.8135C46.2364 39.8061 46.2371 39.7988 46.2377 39.7912C46.3204 38.8009 47.193 38.0622 48.1837 38.1453L83.3943 41.0853C83.874 41.1253 84.3095 41.3498 84.6203 41.7174C84.9312 42.085 85.0804 42.5515 85.0403 43.0313Z" fill="white"/>
<path d="M73.8049 62.8877H64.4062C63.8669 62.8877 63.4297 63.3249 63.4297 63.8643V69.996C63.4297 70.5354 63.8669 70.9726 64.4062 70.9726H73.8049C74.3442 70.9726 74.7814 70.5354 74.7814 69.996V63.8643C74.7814 63.3249 74.3442 62.8877 73.8049 62.8877ZM72.8283 69.0194H65.3828V64.8408H72.8283V69.0194Z" fill="white"/>
</g>
<defs>
<filter id="filter0_d_12064_10" x="0" y="1" width="119" height="119" filterUnits="userSpaceOnUse" color-interpolation-filters="sRGB">
<feFlood flood-opacity="0" result="BackgroundImageFix"/>
<feColorMatrix in="SourceAlpha" type="matrix" values="0 0 0 0 0 0 0 0 0 0 0 0 0 0 0 0 0 0 127 0" result="hardAlpha"/>
<feOffset dy="4"/>
<feGaussianBlur stdDeviation="6.5"/>
<feColorMatrix type="matrix" values="0 0 0 0 0.117326 0 0 0 0 0.138241 0 0 0 0 0.258333 0 0 0 0.11 0"/>
<feBlend mode="multiply" in2="BackgroundImageFix" result="effect1_dropShadow_12064_10"/>
<feBlend mode="normal" in="SourceGraphic" in2="effect1_dropShadow_12064_10" result="shape"/>
</filter>
<clipPath id="clip0_12064_10">
<rect width="50" height="50" fill="white" transform="translate(37 31)"/>
</clipPath>
</defs>
</svg>
