<svg width="119" height="120" viewBox="0 0 119 120" fill="none" xmlns="http://www.w3.org/2000/svg">
<rect x="3.5" y="0.5" width="112" height="112" rx="56" stroke="#6C7188"/>
<g filter="url(#filter0_d_12064_3)">
<rect x="13" y="10" width="93" height="93" rx="46.5" fill="#89C249"/>
</g>
<g clip-path="url(#clip0_12064_3)">
<path d="M74.3267 55.6446V46.1822C74.3267 45.9114 74.2016 45.6611 74.0246 45.4632L63.4159 34.3231C63.2179 34.1148 62.9364 34 62.6552 34H45.8355C42.7303 34 40.25 36.5322 40.25 39.6377V71.4428C40.25 74.5483 42.7303 77.0389 45.8355 77.0389H59.1121C61.6234 81.2073 66.188 84 71.3878 84C79.2869 84 85.7376 77.5806 85.7376 69.6712C85.7483 62.7621 80.7876 56.9889 74.3267 55.6446ZM63.6974 37.6579L70.8149 45.1504H66.1983C64.8228 45.1504 63.6974 44.0147 63.6974 42.6391V37.6579ZM45.8355 74.9546C43.8869 74.9546 42.3344 73.3913 42.3344 71.4428V39.6377C42.3344 37.6785 43.8869 36.0844 45.8355 36.0844H61.6131V42.6391C61.6131 45.1713 63.6661 47.2347 66.1983 47.2347H72.2423V55.3734C71.9299 55.3631 71.6797 55.3318 71.4088 55.3318C67.7719 55.3318 64.4268 56.7284 61.9049 58.9168H48.6702C48.0968 58.9168 47.628 59.3857 47.628 59.9586C47.628 60.532 48.0968 61.0008 48.6702 61.0008H59.9666C59.2266 62.043 58.6117 63.0852 58.1325 64.2315H48.6702C48.0968 64.2315 47.628 64.7003 47.628 65.2737C47.628 65.8466 48.0968 66.3158 48.6702 66.3158H57.455C57.1945 67.358 57.0591 68.5146 57.0591 69.6712C57.0591 71.5469 57.4238 73.402 58.0803 74.9653H45.8355V74.9546ZM71.3985 81.9263C64.6457 81.9263 59.1537 76.4343 59.1537 69.6815C59.1537 62.9288 64.6351 57.4367 71.3985 57.4367C78.1616 57.4367 83.6429 62.9288 83.6429 69.6815C83.6429 76.4343 78.1513 81.9263 71.3985 81.9263Z" fill="white"/>
<path d="M48.6672 55.7802H59.2236C59.7969 55.7802 60.2658 55.3109 60.2658 54.738C60.2658 54.1646 59.7969 53.6958 59.2236 53.6958H48.6672C48.0938 53.6958 47.625 54.1646 47.625 54.738C47.625 55.3109 48.0938 55.7802 48.6672 55.7802Z" fill="white"/>
<path d="M77.0638 64.9919L69.1853 72.2032L65.3298 68.0139C64.9441 67.5867 64.2769 67.5661 63.8604 67.9514C63.4331 68.337 63.4121 69.0042 63.7978 69.4208L68.3621 74.3707C68.5704 74.5897 68.8519 74.7045 69.1334 74.7045C69.3833 74.7045 69.6335 74.6107 69.8418 74.4333L78.481 66.5136C78.9082 66.1279 78.9395 65.4607 78.5435 65.0442C78.1476 64.6272 77.4911 64.596 77.0638 64.9919Z" fill="white"/>
</g>
<defs>
<filter id="filter0_d_12064_3" x="0" y="1" width="119" height="119" filterUnits="userSpaceOnUse" color-interpolation-filters="sRGB">
<feFlood flood-opacity="0" result="BackgroundImageFix"/>
<feColorMatrix in="SourceAlpha" type="matrix" values="0 0 0 0 0 0 0 0 0 0 0 0 0 0 0 0 0 0 127 0" result="hardAlpha"/>
<feOffset dy="4"/>
<feGaussianBlur stdDeviation="6.5"/>
<feColorMatrix type="matrix" values="0 0 0 0 0.117326 0 0 0 0 0.138241 0 0 0 0 0.258333 0 0 0 0.11 0"/>
<feBlend mode="multiply" in2="BackgroundImageFix" result="effect1_dropShadow_12064_3"/>
<feBlend mode="normal" in="SourceGraphic" in2="effect1_dropShadow_12064_3" result="shape"/>
</filter>
<clipPath id="clip0_12064_3">
<rect width="50" height="50" fill="white" transform="translate(38 34)"/>
</clipPath>
</defs>
</svg>
