<svg width="119" height="120" viewBox="0 0 119 120" fill="none" xmlns="http://www.w3.org/2000/svg">
<rect x="3.5" y="0.5" width="112" height="112" rx="56" stroke="#6C7188"/>
<g filter="url(#filter0_d_12064_11)">
<rect x="13" y="10" width="93" height="93" rx="46.5" fill="#89C249"/>
</g>
<g clip-path="url(#clip0_12064_11)">
<path d="M68.6224 51.1667H51.3724C50.8434 51.1667 50.4141 50.7373 50.4141 50.2083V32.9583C50.4141 32.4293 50.8434 32 51.3724 32H68.6224C69.1514 32 69.5807 32.4293 69.5807 32.9583V50.2083C69.5807 50.7373 69.1514 51.1667 68.6224 51.1667ZM52.3307 49.25H67.6641V33.9167H52.3307V49.25Z" fill="white"/>
<path d="M62.8724 39.6667H57.1224C56.5934 39.6667 56.1641 39.2373 56.1641 38.7083V32.9583C56.1641 32.4293 56.5934 32 57.1224 32H62.8724C63.4014 32 63.8307 32.4293 63.8307 32.9583V38.7083C63.8307 39.2373 63.4014 39.6667 62.8724 39.6667ZM58.0807 37.75H61.9141V33.9167H58.0807V37.75Z" fill="white"/>
<path d="M60.0026 68.4167H41.7943C41.2653 68.4167 40.8359 67.9873 40.8359 67.4583V50.2083C40.8359 49.6793 41.2653 49.25 41.7943 49.25H60.0026C60.5316 49.25 60.9609 49.6793 60.9609 50.2083V67.4583C60.9609 67.9873 60.5316 68.4167 60.0026 68.4167ZM42.7526 66.5H59.0443V51.1667H42.7526V66.5Z" fill="white"/>
<path d="M53.2943 56.9167H47.5443C47.0153 56.9167 46.5859 56.4873 46.5859 55.9583V50.2083C46.5859 49.6793 47.0153 49.25 47.5443 49.25H53.2943C53.8233 49.25 54.2526 49.6793 54.2526 50.2083V55.9583C54.2526 56.4873 53.8233 56.9167 53.2943 56.9167ZM48.5026 55H52.3359V51.1667H48.5026V55Z" fill="white"/>
<path d="M78.2057 68.4167H59.9974C59.4684 68.4167 59.0391 67.9873 59.0391 67.4583V50.2083C59.0391 49.6793 59.4684 49.25 59.9974 49.25H78.2057C78.7347 49.25 79.1641 49.6793 79.1641 50.2083V67.4583C79.1641 67.9873 78.7347 68.4167 78.2057 68.4167ZM60.9557 66.5H77.2474V51.1667H60.9557V66.5Z" fill="white"/>
<path d="M72.4583 56.9167H66.7083C66.1793 56.9167 65.75 56.4873 65.75 55.9583V50.2083C65.75 49.6793 66.1793 49.25 66.7083 49.25H72.4583C72.9873 49.25 73.4167 49.6793 73.4167 50.2083V55.9583C73.4167 56.4873 72.9873 56.9167 72.4583 56.9167ZM67.6667 55H71.5V51.1667H67.6667V55Z" fill="white"/>
<path d="M82.0417 78H74.375C73.846 78 73.4167 77.5707 73.4167 77.0417V74.1667H65.75V77.0417C65.75 77.5707 65.3207 78 64.7917 78H55.2083C54.6793 78 54.25 77.5707 54.25 77.0417V74.1667H46.5833V77.0417C46.5833 77.5707 46.154 78 45.625 78H37.9583C37.4293 78 37 77.5707 37 77.0417V67.4583C37 66.9293 37.4293 66.5 37.9583 66.5H82.0417C82.5707 66.5 83 66.9293 83 67.4583V77.0417C83 77.5707 82.5707 78 82.0417 78ZM75.3333 76.0833H81.0833V68.4167H38.9167V76.0833H44.6667V73.2083C44.6667 72.6793 45.096 72.25 45.625 72.25H55.2083C55.7373 72.25 56.1667 72.6793 56.1667 73.2083V76.0833H63.8333V73.2083C63.8333 72.6793 64.2627 72.25 64.7917 72.25H74.375C74.904 72.25 75.3333 72.6793 75.3333 73.2083V76.0833Z" fill="white"/>
</g>
<defs>
<filter id="filter0_d_12064_11" x="0" y="1" width="119" height="119" filterUnits="userSpaceOnUse" color-interpolation-filters="sRGB">
<feFlood flood-opacity="0" result="BackgroundImageFix"/>
<feColorMatrix in="SourceAlpha" type="matrix" values="0 0 0 0 0 0 0 0 0 0 0 0 0 0 0 0 0 0 127 0" result="hardAlpha"/>
<feOffset dy="4"/>
<feGaussianBlur stdDeviation="6.5"/>
<feColorMatrix type="matrix" values="0 0 0 0 0.117326 0 0 0 0 0.138241 0 0 0 0 0.258333 0 0 0 0.11 0"/>
<feBlend mode="multiply" in2="BackgroundImageFix" result="effect1_dropShadow_12064_11"/>
<feBlend mode="normal" in="SourceGraphic" in2="effect1_dropShadow_12064_11" result="shape"/>
</filter>
<clipPath id="clip0_12064_11">
<rect width="46" height="46" fill="white" transform="translate(37 32)"/>
</clipPath>
</defs>
</svg>
