<svg width="119" height="120" viewBox="0 0 119 120" fill="none" xmlns="http://www.w3.org/2000/svg">
<rect x="3.5" y="0.5" width="112" height="112" rx="56" stroke="#6C7188"/>
<g filter="url(#filter0_d_12064_6)">
<rect x="13" y="10" width="93" height="93" rx="46.5" fill="#89C249"/>
</g>
<g clip-path="url(#clip0_12064_6)">
<path d="M82.0884 74.9405C81.0208 74.9413 79.977 74.6254 79.089 74.0329C78.2009 73.4403 77.5085 72.5977 77.0995 71.6116C76.6904 70.6255 76.5829 69.5402 76.7907 68.493C76.9985 67.4458 77.5122 66.4838 78.2669 65.7286C79.0215 64.9734 79.9831 64.459 81.0302 64.2505C82.0772 64.0419 83.1625 64.1486 84.1489 64.5569C85.1353 64.9653 85.9785 65.657 86.5717 66.5447C87.1649 67.4323 87.4815 68.4759 87.4815 69.5435C87.4808 70.974 86.9125 72.3457 85.9014 73.3576C84.8902 74.3695 83.5189 74.9388 82.0884 74.9405ZM82.0884 66.1152C81.4102 66.1145 80.747 66.3149 80.1827 66.6911C79.6184 67.0673 79.1784 67.6025 78.9183 68.2288C78.6583 68.8552 78.5898 69.5446 78.7216 70.2099C78.8535 70.8752 79.1797 71.4864 79.659 71.9662C80.1383 72.4461 80.7491 72.773 81.4142 72.9056C82.0794 73.0382 82.7689 72.9705 83.3955 72.7112C84.0222 72.4518 84.5578 72.0124 84.9347 71.4485C85.3116 70.8847 85.5127 70.2217 85.5127 69.5435C85.5124 68.635 85.1516 67.7639 84.5096 67.1211C83.8677 66.4784 82.9969 66.1166 82.0884 66.1152Z" fill="white"/>
<path d="M53.6522 74.9405C52.5846 74.9415 51.5406 74.6259 50.6524 74.0335C49.7642 73.4411 49.0716 72.5985 48.6623 71.6125C48.253 70.6264 48.1454 69.5411 48.3531 68.4938C48.5607 67.4465 49.0743 66.4844 49.8289 65.7291C50.5835 64.9738 51.5451 64.4592 52.5922 64.2506C53.6392 64.0419 54.7246 64.1485 55.7111 64.5568C56.6976 64.9651 57.5408 65.6569 58.1341 66.5445C58.7273 67.4322 59.044 68.4758 59.044 69.5435C59.043 70.9736 58.4747 72.345 57.464 73.3567C56.4532 74.3685 55.0824 74.938 53.6522 74.9405ZM53.6522 66.1152C52.974 66.1142 52.3106 66.3144 51.7462 66.6904C51.1817 67.0665 50.7415 67.6016 50.4812 68.2279C50.2209 68.8542 50.1523 69.5437 50.284 70.2091C50.4157 70.8744 50.7418 71.4858 51.221 71.9658C51.7002 72.4457 52.3111 72.7728 52.9762 72.9055C53.6414 73.0382 54.331 72.9706 54.9577 72.7113C55.5845 72.452 56.1202 72.0125 56.4971 71.4487C56.874 70.8848 57.0752 70.2217 57.0752 69.5435C57.0746 68.6354 56.7139 67.7646 56.0722 67.122C55.4306 66.4793 54.5604 66.1173 53.6522 66.1152Z" fill="white"/>
<path d="M89.1881 70.5278H86.4961C86.2351 70.5278 85.9847 70.4241 85.8001 70.2395C85.6155 70.0549 85.5118 69.8045 85.5118 69.5434C85.5118 69.2823 85.6155 69.032 85.8001 68.8473C85.9847 68.6627 86.2351 68.559 86.4961 68.559H88.9098V63.3392C88.9092 62.6335 88.7285 61.9396 88.3848 61.3232L83.0561 51.7695C83.0105 51.688 82.9441 51.6201 82.8636 51.5728C82.7831 51.5255 82.6914 51.5005 82.598 51.5005H75.3359V68.563H77.6801C77.9411 68.563 78.1915 68.6667 78.3761 68.8513C78.5607 69.0359 78.6644 69.2863 78.6644 69.5473C78.6644 69.8084 78.5607 70.0588 78.3761 70.2434C78.1915 70.428 77.9411 70.5317 77.6801 70.5317H74.3516C74.0905 70.5317 73.8401 70.428 73.6555 70.2434C73.4709 70.0588 73.3672 69.8084 73.3672 69.5473V50.5161C73.3672 50.255 73.4709 50.0047 73.6555 49.8201C73.8401 49.6354 74.0905 49.5317 74.3516 49.5317H82.598C83.0421 49.5315 83.4782 49.6499 83.8612 49.8746C84.2443 50.0994 84.5603 50.4223 84.7768 50.8101L90.1042 60.3651C90.6107 61.2746 90.8768 62.2982 90.8773 63.3392V68.8386C90.8766 69.2864 90.6984 69.7156 90.3817 70.0323C90.0651 70.3489 89.6359 70.5271 89.1881 70.5278Z" fill="white"/>
<path d="M49.2429 70.528H39.8047C39.5436 70.528 39.2932 70.4243 39.1086 70.2397C38.924 70.0551 38.8203 69.8047 38.8203 69.5437V61.9731C38.8203 61.7121 38.924 61.4617 39.1086 61.2771C39.2932 61.0925 39.5436 60.9888 39.8047 60.9888C40.0658 60.9888 40.3161 61.0925 40.5007 61.2771C40.6854 61.4617 40.7891 61.7121 40.7891 61.9731V68.5593H49.2429C49.5039 68.5593 49.7543 68.663 49.9389 68.8476C50.1235 69.0322 50.2273 69.2826 50.2273 69.5437C50.2273 69.8047 50.1235 70.0551 49.9389 70.2397C49.7543 70.4243 49.5039 70.528 49.2429 70.528Z" fill="white"/>
<path d="M39.8047 58.4803C39.5436 58.4803 39.2932 58.3766 39.1086 58.192C38.924 58.0074 38.8203 57.757 38.8203 57.496V50.8862C38.8203 50.6252 38.924 50.3748 39.1086 50.1902C39.2932 50.0056 39.5436 49.9019 39.8047 49.9019C40.0658 49.9019 40.3161 50.0056 40.5007 50.1902C40.6854 50.3748 40.7891 50.6252 40.7891 50.8862V57.4999C40.788 57.7603 40.6839 58.0097 40.4994 58.1934C40.3149 58.3772 40.0651 58.4803 39.8047 58.4803Z" fill="white"/>
<path d="M74.3563 70.5279H58.0589C57.7979 70.5279 57.5475 70.4242 57.3629 70.2396C57.1783 70.055 57.0746 69.8046 57.0746 69.5436C57.0746 69.2825 57.1783 69.0321 57.3629 68.8475C57.5475 68.6629 57.7979 68.5592 58.0589 68.5592H73.3719V42.8066H40.7891V46.861C40.7891 47.122 40.6854 47.3724 40.5007 47.557C40.3161 47.7416 40.0658 47.8453 39.8047 47.8453C39.5436 47.8453 39.2932 47.7416 39.1086 47.557C38.924 47.3724 38.8203 47.122 38.8203 46.861V42.6255C38.821 42.1514 39.0098 41.6969 39.3451 41.3618C39.6805 41.0266 40.1351 40.8382 40.6093 40.8379H73.553C74.0269 40.8386 74.4812 41.0271 74.8163 41.3622C75.1514 41.6973 75.34 42.1516 75.3406 42.6255V69.5436C75.3406 69.8046 75.2369 70.055 75.0523 70.2396C74.8677 70.4242 74.6173 70.5279 74.3563 70.5279Z" fill="white"/>
<path d="M43.6968 62.9575H31.2031C30.9421 62.9575 30.6917 62.8538 30.5071 62.6692C30.3225 62.4846 30.2188 62.2342 30.2188 61.9731C30.2188 61.7121 30.3225 61.4617 30.5071 61.2771C30.6917 61.0925 30.9421 60.9888 31.2031 60.9888H43.6968C43.9579 60.9888 44.2083 61.0925 44.3929 61.2771C44.5775 61.4617 44.6812 61.7121 44.6812 61.9731C44.6812 62.2342 44.5775 62.4846 44.3929 62.6692C44.2083 62.8538 43.9579 62.9575 43.6968 62.9575Z" fill="white"/>
<path d="M53.6527 58.4805H36.2187C35.9577 58.4805 35.7073 58.3767 35.5227 58.1921C35.3381 58.0075 35.2344 57.7572 35.2344 57.4961C35.2344 57.235 35.3381 56.9846 35.5227 56.8C35.7073 56.6154 35.9577 56.5117 36.2187 56.5117H53.6527C53.9138 56.5117 54.1641 56.6154 54.3487 56.8C54.5333 56.9846 54.6371 57.235 54.6371 57.4961C54.6371 57.7572 54.5333 58.0075 54.3487 58.1921C54.1641 58.3767 53.9138 58.4805 53.6527 58.4805Z" fill="white"/>
<path d="M35.6751 53.2827H28.8672C28.6061 53.2827 28.3557 53.179 28.1711 52.9944C27.9865 52.8098 27.8828 52.5594 27.8828 52.2983C27.8828 52.0373 27.9865 51.7869 28.1711 51.6023C28.3557 51.4177 28.6061 51.314 28.8672 51.314H35.6751C35.9362 51.314 36.1866 51.4177 36.3712 51.6023C36.5558 51.7869 36.6595 52.0373 36.6595 52.2983C36.6595 52.5594 36.5558 52.8098 36.3712 52.9944C36.1866 53.179 35.9362 53.2827 35.6751 53.2827Z" fill="white"/>
<path d="M46.5876 47.8452H34.5703C34.3092 47.8452 34.0589 47.7415 33.8743 47.5569C33.6896 47.3723 33.5859 47.1219 33.5859 46.8608C33.5859 46.5998 33.6896 46.3494 33.8743 46.1648C34.0589 45.9802 34.3092 45.8765 34.5703 45.8765H46.5876C46.8486 45.8765 47.099 45.9802 47.2836 46.1648C47.4682 46.3494 47.5719 46.5998 47.5719 46.8608C47.5719 47.1219 47.4682 47.3723 47.2836 47.5569C47.099 47.7415 46.8486 47.8452 46.5876 47.8452Z" fill="white"/>
</g>
<defs>
<filter id="filter0_d_12064_6" x="0" y="1" width="119" height="119" filterUnits="userSpaceOnUse" color-interpolation-filters="sRGB">
<feFlood flood-opacity="0" result="BackgroundImageFix"/>
<feColorMatrix in="SourceAlpha" type="matrix" values="0 0 0 0 0 0 0 0 0 0 0 0 0 0 0 0 0 0 127 0" result="hardAlpha"/>
<feOffset dy="4"/>
<feGaussianBlur stdDeviation="6.5"/>
<feColorMatrix type="matrix" values="0 0 0 0 0.117326 0 0 0 0 0.138241 0 0 0 0 0.258333 0 0 0 0.11 0"/>
<feBlend mode="multiply" in2="BackgroundImageFix" result="effect1_dropShadow_12064_6"/>
<feBlend mode="normal" in="SourceGraphic" in2="effect1_dropShadow_12064_6" result="shape"/>
</filter>
<clipPath id="clip0_12064_6">
<rect width="63" height="63" fill="white" transform="translate(28 26)"/>
</clipPath>
</defs>
</svg>
