<svg width="119" height="120" viewBox="0 0 119 120" fill="none" xmlns="http://www.w3.org/2000/svg">
<rect x="3.5" y="0.5" width="112" height="112" rx="56" stroke="#6C7188"/>
<g filter="url(#filter0_d_12064_5)">
<rect x="13" y="10" width="93" height="93" rx="46.5" fill="#89C249"/>
</g>
<path d="M64.3237 46.0169C62.9072 44.6006 60.6146 44.6004 59.198 46.0169L53.2943 51.9207L51.8201 50.4467C50.4093 49.036 48.1222 49.0312 46.7059 50.4474C45.296 51.8575 45.296 54.1527 46.7059 55.5628L52.612 61.471C53.0429 61.9019 53.7189 61.8887 54.1361 61.466L64.3401 51.1261C65.7352 49.7132 65.7278 47.4212 64.3237 46.0169ZM62.8112 49.617L53.3668 59.1835L48.225 54.0418C47.6527 53.4694 47.6527 52.5381 48.225 51.9657C48.7985 51.3923 49.7272 51.3919 50.301 51.9657L52.5346 54.1995C52.9539 54.6187 53.6343 54.619 54.0537 54.1995L60.717 47.5361C61.2937 46.9592 62.2277 46.9591 62.8044 47.5361C63.3764 48.108 63.3794 49.0415 62.8112 49.617Z" fill="white"/>
<path d="M81.4555 71.2266L70.9337 62.2052C74.9089 55.2687 73.7647 46.49 68.0818 40.8069C61.1388 33.8642 49.9012 33.8635 42.9574 40.807C36.0147 47.7498 36.0137 58.9882 42.9574 65.9319C48.772 71.747 57.5218 72.6474 64.2532 68.841L72.9179 79.5315C75.1467 82.2812 79.2738 82.5123 81.7916 79.9945C84.252 77.534 84.097 73.4912 81.4555 71.2266ZM44.4766 64.4119C38.3735 58.3089 38.3724 48.43 44.4766 42.3258C50.5795 36.2229 60.4586 36.2219 66.5625 42.3258C73.5163 49.2797 72.4164 61.1015 63.9221 66.5358C63.9219 66.5359 63.9216 66.5362 63.9214 66.5363C57.9552 70.3516 49.8262 69.7619 44.4766 64.4119ZM80.2723 78.4751C78.666 80.0816 76.0203 79.9469 74.5868 78.1785L66.0667 67.6664C67.4861 66.615 68.7375 65.3612 69.7436 64.0147L80.0572 72.8576C81.743 74.3031 81.8611 76.8866 80.2723 78.4751Z" fill="white"/>
<defs>
<filter id="filter0_d_12064_5" x="0" y="1" width="119" height="119" filterUnits="userSpaceOnUse" color-interpolation-filters="sRGB">
<feFlood flood-opacity="0" result="BackgroundImageFix"/>
<feColorMatrix in="SourceAlpha" type="matrix" values="0 0 0 0 0 0 0 0 0 0 0 0 0 0 0 0 0 0 127 0" result="hardAlpha"/>
<feOffset dy="4"/>
<feGaussianBlur stdDeviation="6.5"/>
<feColorMatrix type="matrix" values="0 0 0 0 0.117326 0 0 0 0 0.138241 0 0 0 0 0.258333 0 0 0 0.11 0"/>
<feBlend mode="multiply" in2="BackgroundImageFix" result="effect1_dropShadow_12064_5"/>
<feBlend mode="normal" in="SourceGraphic" in2="effect1_dropShadow_12064_5" result="shape"/>
</filter>
</defs>
</svg>
